<?xml version="1.0" encoding="UTF-8" standalone="no"?>
<!-- Created with Inkscape (http://www.inkscape.org/) -->

<svg
   xmlns:dc="http://purl.org/dc/elements/1.1/"
   xmlns:cc="http://creativecommons.org/ns#"
   xmlns:rdf="http://www.w3.org/1999/02/22-rdf-syntax-ns#"
   xmlns:svg="http://www.w3.org/2000/svg"
   xmlns="http://www.w3.org/2000/svg"
   xmlns:sodipodi="http://sodipodi.sourceforge.net/DTD/sodipodi-0.dtd"
   xmlns:inkscape="http://www.inkscape.org/namespaces/inkscape"
   width="259.90253"
   height="208.56374"
   id="svg7376"
   version="1.1"
   inkscape:version="0.48.5 r10040"
   sodipodi:docname="New document 17">
  <defs
     id="defs7378" />
  <sodipodi:namedview
     id="base"
     pagecolor="#ffffff"
     bordercolor="#666666"
     borderopacity="1.0"
     inkscape:pageopacity="0.0"
     inkscape:pageshadow="2"
     inkscape:zoom="0.35"
     inkscape:cx="129.95126"
     inkscape:cy="77.139011"
     inkscape:document-units="px"
     inkscape:current-layer="layer1"
     showgrid="false"
     fit-margin-top="0"
     fit-margin-left="0"
     fit-margin-right="0"
     fit-margin-bottom="0"
     inkscape:window-width="1678"
     inkscape:window-height="984"
     inkscape:window-x="1920"
     inkscape:window-y="32"
     inkscape:window-maximized="1" />
  <metadata
     id="metadata7381">
    <rdf:RDF>
      <cc:Work
         rdf:about="">
        <dc:format>image/svg+xml</dc:format>
        <dc:type
           rdf:resource="http://purl.org/dc/dcmitype/StillImage" />
        <dc:title></dc:title>
      </cc:Work>
    </rdf:RDF>
  </metadata>
  <g
     inkscape:label="Layer 1"
     inkscape:groupmode="layer"
     id="layer1"
     transform="translate(-245.04874,-428.08032)">
    <path
       style="font-size:12px;fill:#888a85;stroke-linecap:square;stroke-miterlimit:3"
       d="m 368.38646,636.22919 c -0.99467,-0.19457 -2.35895,-0.73947 -3.0317,-1.2107 -0.6728,-0.47119 -1.69782,-0.85679 -2.27781,-0.85679 -0.58002,0 -1.27158,-0.20623 -1.53683,-0.45837 -0.26526,-0.2525 -1.62436,-0.5993 -3.0203,-0.77153 -6.4987,-0.80171 -6.85282,-0.89167 -6.84951,-1.73993 0.002,-0.46048 0.96024,-1.95378 2.1298,-3.31842 3.08238,-3.5965 3.0106,-4.40775 -0.61023,-6.89403 -0.97718,-0.67097 -2.50975,-1.8476 -3.40583,-2.61469 -0.89603,-0.76709 -2.4912,-1.80377 -3.54486,-2.30378 -1.05366,-0.49998 -3.02751,-1.65726 -4.38632,-2.57166 -3.44536,-2.31858 -5.10484,-2.22865 -6.4192,0.3476 -0.56403,1.10561 -1.02553,2.87834 -1.02553,3.93939 0,1.46605 -0.4184,2.41517 -1.7431,3.95423 -0.95875,1.11381 -2.28557,2.68253 -2.94852,3.48602 -1.09873,1.3317 -1.30434,1.39915 -2.32389,0.76243 -0.61519,-0.38393 -1.48824,-1.66655 -1.94008,-2.84967 -0.45184,-1.18312 -1.13436,-2.41079 -1.51672,-2.72811 -1.04499,-0.86726 -0.83647,-3.00296 0.39769,-4.0733 0.60109,-0.52137 1.28638,-0.94789 1.52285,-0.94789 0.23647,0 0.42995,-0.24958 0.42995,-0.55448 0,-0.30534 0.45683,-1.13528 1.01522,-1.84509 1.86137,-2.36634 0.96577,-4.5998 -3.29947,-8.22858 -1.39594,-1.18763 -3.68023,-3.18028 -5.07617,-4.42818 -1.39594,-1.24787 -3.90864,-3.09142 -5.58376,-4.09673 -1.67511,-1.00527 -4.64468,-3.01173 -6.59897,-4.45876 -1.95432,-1.44705 -4.41747,-3.03774 -5.47365,-3.53481 -2.58645,-1.21729 -5.44009,-4.61065 -5.44009,-6.46904 0,-1.9149 3.63469,-5.81975 7.22131,-7.75811 1.47245,-0.79577 3.66638,-2.41506 4.87536,-3.59843 3.04504,-2.9804 2.80846,-3.88088 -1.84151,-7.00943 -3.45935,-2.3275 -10.55499,-9.4247 -12.07109,-12.07382 -3.01301,-5.26465 -3.26019,-6.08975 -3.26019,-10.88273 0,-2.58401 0.22845,-4.83853 0.50759,-5.01109 0.2791,-0.17271 0.50762,-1.785 0.50762,-3.58327 l 0,-3.26955 -2.69036,0 c -1.47967,0 -2.90735,0.21023 -3.1726,0.46813 -0.26526,0.25723 -2.08119,0.5852 -4.03552,0.72839 -4.66028,0.34141 -9.51338,1.02808 -10.16242,1.43788 -0.28456,0.17999 -1.88374,0.38531 -3.55332,0.45665 -1.66954,0.0714 -3.20335,0.37577 -3.40848,0.67676 -0.20514,0.30097 -0.37642,1.81747 -0.38072,3.37038 -0.007,3.15871 1.06684,5.78812 3.51684,8.59789 0.85202,0.97714 1.55604,2.00508 1.56446,2.28425 0.007,0.2791 0.69425,1.4049 1.52405,2.50163 1.59032,2.10182 1.84457,2.82835 0.98978,2.82835 -0.65617,0 -6.08005,-5.56882 -6.08005,-6.24252 0,-0.50242 -4.34515,-5.86737 -5.31861,-6.56702 -0.28529,-0.20513 -0.9187,-0.37664 -1.40727,-0.38076 -1.35258,-0.0146 -1.25584,4.7164 0.1268,6.20059 1.29643,1.39153 1.39958,4.09242 0.1472,3.85122 -0.49484,-0.0951 -1.00272,-0.82521 -1.18111,-1.6976 -0.17198,-0.84171 -0.74028,-2.2109 -1.26251,-3.04263 -0.52221,-0.83169 -0.98593,-1.57469 -1.03045,-1.65106 -0.0444,-0.0765 -0.47753,0.0146 -0.96217,0.19967 -0.70271,0.26962 -0.8158,0.70901 -0.55849,2.16933 0.17744,1.00713 0.36997,2.51646 0.42779,3.35401 0.10494,1.52143 0.10239,1.52299 -2.97136,1.67147 -2.50855,0.12097 -3.32854,-0.0496 -4.44163,-0.92515 -0.79522,-0.62553 -1.36511,-1.57568 -1.36511,-2.27605 0,-0.66121 -0.22846,-1.3434 -0.50763,-1.51596 -0.97565,-0.60302 -0.53361,-4.73964 0.80965,-7.57666 1.52452,-3.21979 9.17945,-10.95127 10.8429,-10.95127 0.55904,0 2.79155,-0.60939 4.96114,-1.35418 3.25505,-1.11746 5.09842,-1.39266 10.54369,-1.57397 3.62947,-0.1206 6.81602,-0.42491 7.08124,-0.67625 0.26525,-0.25104 0.89421,-0.45647 1.39776,-0.45647 0.50355,0 1.76795,-0.45687 2.80977,-1.01526 1.04178,-0.55838 2.8341,-1.01525 3.9829,-1.01525 1.55709,0 2.65721,-0.41854 4.32223,-1.64443 2.50225,-1.84236 3.90146,-2.73355 5.02541,-3.2008 0.88962,-0.36983 6.50223,-3.13394 7.61423,-3.7499 0.41879,-0.23173 1.78934,-0.91421 3.04569,-1.51614 1.25635,-0.60199 2.62689,-1.30288 3.04569,-1.5576 0.41876,-0.25469 2.3604,-1.1758 4.31472,-2.04691 1.95433,-0.87104 4.0181,-1.8084 4.58618,-2.08309 1.26189,-0.61012 14.08243,-0.24922 19.77932,0.55711 2.2335,0.3159 6.00255,0.69283 8.3756,0.83734 2.37315,0.14428 4.53177,0.47505 4.79703,0.73455 0.26525,0.25979 1.90783,0.47192 3.6502,0.47192 1.74241,0 3.3092,0.22845 3.48172,0.50763 0.17271,0.2791 1.55663,0.50759 3.07568,0.50759 l 2.76189,0 0,-2.00045 c 0,-1.1003 0.22846,-2.14171 0.50763,-2.31424 1.10099,-0.68044 0.37894,-2.64854 -1.81634,-4.94926 -1.26524,-1.32613 -2.52032,-2.41116 -2.78907,-2.41116 -0.76629,0 -8.59254,-7.93523 -8.59254,-8.71219 0,-0.84284 4.61379,-3.93761 7.19762,-4.82782 1.21332,-0.4181 3.43647,-2.2618 6.3452,-5.26231 5.27398,-5.44046 5.63174,-6.05593 4.82231,-8.29442 -0.32938,-0.91054 -0.59864,-2.81199 -0.59864,-4.22546 0,-2.36743 0.1585,-2.70439 2.00927,-4.27869 4.76831,-4.05519 5.37811,-4.50065 6.16075,-4.50065 0.45363,0 2.80755,-1.93859 5.23088,-4.30799 2.42332,-2.3694 4.56828,-4.26407 4.76656,-4.21037 0.19822,0.0539 1.09152,-0.29185 1.98504,-0.76814 1.20483,-0.64212 2.87681,-0.8658 6.47203,-0.8658 l 4.84757,0 0,1.45442 c 0,0.79988 0.39989,2.00074 0.88835,2.66858 1.35651,1.85412 2.15734,3.40364 2.15734,4.1743 0,0.38349 0.91371,1.73483 2.03047,3.00353 2.00566,2.27861 2.03044,2.35603 2.03044,6.34823 0,3.07735 -0.21497,4.33024 -0.90088,5.25204 -0.49553,0.66583 -0.97587,1.89365 -1.06758,2.72855 -0.0915,0.83486 -0.59995,2.12645 -1.12955,2.87025 -0.5296,0.74377 -0.9629,1.83904 -0.9629,2.4339 0,0.59489 -0.37529,1.65445 -0.83406,2.35464 -0.51954,0.79285 -0.8902,2.605 -0.98279,4.80446 l -0.14866,3.53146 1.41624,0 c 0.80709,0 2.00522,-0.54581 2.78554,-1.26903 1.56522,-1.4506 1.99199,-1.53677 2.93601,-0.59271 0.41581,0.41581 2.13487,0.72359 4.46033,0.79901 4.14792,0.13445 4.86793,0.34833 4.15775,1.23485 -0.25978,0.32429 -0.59522,1.3888 -0.7457,2.36598 -0.72945,4.73669 -1.04017,5.32094 -2.91033,5.47237 -3.06562,0.24813 -7.08864,2.63579 -7.08864,4.20688 0,0.81707 0.364,0.98067 2.18271,0.98067 1.20053,0 2.43269,-0.24995 2.73817,-0.55543 0.53739,-0.53739 3.17529,-0.43858 8.91157,0.33339 2.39024,0.32173 2.41119,0.31189 2.41119,-1.12777 0,-0.84889 0.53161,-2.02559 1.27957,-2.83217 0.70376,-0.75897 1.42297,-2.12722 1.59816,-3.04052 0.17525,-0.91331 0.74162,-2.26687 1.25857,-3.00795 0.51692,-0.74103 0.94082,-1.54055 0.94198,-1.77666 0.003,-0.54344 2.04603,-4.56398 3.2337,-6.36272 0.87571,-1.32627 0.86911,-1.40844 -0.23173,-2.89758 -1.51385,-2.0476 -0.70908,-3.09787 2.37363,-3.09787 2.41418,0 7.13801,-1.85521 8.29741,-3.25866 0.58913,-0.71309 0.61041,-1.07763 0.10967,-1.87937 -0.87625,-1.40308 -0.32283,-1.96857 1.92699,-1.96857 2.05813,0 2.56241,-0.55758 2.56241,-2.83341 0,-1.09367 0.22153,-1.2275 2.03043,-1.2275 1.76785,0 2.03022,-0.14757 2.02858,-1.14212 -0.001,-0.6282 -0.45793,-1.89005 -1.01525,-2.80416 -0.55733,-0.91411 -1.01333,-1.77072 -1.01333,-1.90357 0,-0.13299 1.34256,-0.24157 2.98354,-0.24157 2.00893,0 3.18633,0.24412 3.60429,0.748 0.3414,0.41125 1.45442,0.89822 2.47332,1.08186 1.01893,0.18363 2.08101,0.46867 2.36018,0.63329 0.2791,0.16469 0.96388,0.3703 1.52153,0.45691 0.55766,0.0867 1.85773,0.83566 2.88902,1.66447 1.03132,0.82874 2.19925,1.50685 2.59545,1.50685 0.39624,0 1.56187,0.57103 2.59035,1.26904 1.02856,0.69797 2.03273,1.26899 2.2316,1.26899 0.19894,0 1.50215,1.0322 2.89627,2.29376 1.39408,1.26149 3.79103,3.13664 5.32655,4.16698 1.53553,1.03026 4.56297,3.65293 6.72763,5.82806 2.16467,2.1752 4.10628,3.95994 4.31469,3.96607 0.20878,0.004 1.52113,1.06018 2.91707,2.34222 1.39598,1.28204 3.48665,3.11368 4.64593,4.07031 1.15936,0.95663 2.70126,2.95205 3.42641,4.43427 1.12486,2.29911 1.31615,3.35868 1.30241,7.21292 -0.007,2.75996 -0.25687,4.8233 -0.63453,5.30265 -1.15612,1.4671 -3.12407,2.51478 -4.72376,2.51478 -0.87742,0 -2.17603,0.45684 -2.88592,1.01522 -1.77382,1.39529 -3.31692,1.25311 -5.66256,-0.52176 -1.09669,-0.82976 -2.23882,-1.51378 -2.53811,-1.51997 -0.29914,-0.004 -1.11512,-0.458 -1.81309,-1.00396 -0.69797,-0.54592 -1.57641,-0.99769 -1.9521,-1.00392 -0.37577,-0.004 -1.2894,-0.41676 -2.03047,-0.91178 -0.74108,-0.49531 -3.06056,-1.45139 -5.15451,-2.12462 -2.09391,-0.67327 -4.41343,-1.63861 -5.1545,-2.14518 -0.98971,-0.67658 -2.30356,-0.92107 -4.94922,-0.92107 -1.98103,0 -3.60185,0.17672 -3.60185,0.39213 0,0.21607 -0.76859,1.55928 -1.70794,2.98564 -1.61591,2.45361 -1.71327,2.85845 -1.80716,7.51367 -0.0776,3.84893 -0.31335,5.27124 -1.08208,6.53212 -1.0643,1.74547 -1.2961,4.90742 -0.47254,6.44623 0.4149,0.77507 0.29258,1.07734 -0.63453,1.56548 -1.51389,0.79729 -1.89286,1.42782 -1.90226,3.16472 -0.004,0.79355 -0.4646,2.02359 -1.02298,2.73344 -0.55838,0.70988 -1.01518,1.82282 -1.01518,2.47321 0,1.13811 -1.98759,5.22624 -3.30723,6.80236 -0.35052,0.41858 -0.78542,1.67511 -0.96625,2.79188 -0.18072,1.11673 -0.54964,3.34392 -0.81952,4.94925 -0.26999,1.60534 -0.6835,4.23224 -0.91906,5.83757 -0.23538,1.60531 -0.60266,3.37562 -0.81577,3.93401 -0.93404,2.44708 -1.86371,4.29312 -2.29675,4.56077 -0.25724,0.15887 -0.87942,1.67858 -1.38231,3.37675 -0.67458,2.27762 -1.5137,3.70362 -3.19872,5.43587 -2.14915,2.2093 -3.52829,4.83991 -3.54567,6.76272 -0.004,0.46568 3.19031,4.01828 7.09895,7.89456 6.13062,6.07991 7.10664,7.26663 7.10664,8.64104 0,0.87629 -0.22882,1.73439 -0.50767,1.90699 -0.2791,0.17271 -0.50759,1.28831 -0.50759,2.47951 0,2.36066 -1.19787,3.92584 -3.55328,4.64287 -2.03532,0.61959 -5.09223,2.71871 -8.52094,5.85127 -1.75505,1.60344 -3.71655,3.04722 -4.35885,3.20845 -0.64233,0.16141 -2.02089,1.0976 -3.06347,2.08086 -1.88553,1.77827 -4.42301,2.4124 -5.12277,1.28015 -0.17271,-0.2791 -1.77152,-0.50759 -3.55328,-0.50759 -1.7818,0 -3.3808,-0.22846 -3.55332,-0.50766 -0.17271,-0.27911 -2.32069,-0.5076 -4.7736,-0.5076 -3.67604,0 -4.6076,0.16287 -5.29999,0.92832 -0.46209,0.51054 -0.84015,1.15707 -0.84015,1.43671 0,1.59816 -7.38978,7.77299 -9.34009,7.8045 -0.58633,0.007 -1.97968,0.45855 -3.09645,0.99799 -1.11677,0.53943 -2.37935,0.98858 -2.80583,0.99805 -0.42631,0.007 -1.28306,0.373 -1.90357,0.80743 -0.62047,0.4345 -1.12817,0.6173 -1.12817,0.40622 0,-0.21133 -0.27436,-0.10967 -0.6091,0.22481 -0.33521,0.33522 -1.10657,0.60914 -1.7145,0.60914 -0.60797,0 -1.37758,0.32793 -1.71024,0.72876 -0.33266,0.4008 -1.33145,0.88831 -2.2195,1.08324 -0.88806,0.19494 -2.40908,1.0091 -3.38007,1.80927 -1.41467,1.16585 -2.2719,1.45807 -4.31472,1.471 -1.4319,0.007 -2.98124,0.34287 -3.53467,0.76141 -0.54195,0.4099 -1.11301,0.71903 -1.26906,0.68693 -0.15632,-0.0328 -1.0975,-0.21789 -2.0922,-0.41221 z m 7.39229,-11.79964 c 1.67512,-0.28566 3.38845,-0.69152 3.80739,-0.90238 0.41902,-0.21096 2.0179,-0.22116 3.55328,-0.0219 2.67153,0.34432 5.58347,-0.17562 5.58347,-0.99787 0,-0.21425 0.97084,-1.04616 2.15738,-1.8495 3.45563,-2.33952 5.45685,-4.39762 5.45685,-5.61199 0,-0.62007 0.22809,-1.2686 0.50759,-1.44116 0.2791,-0.17271 0.50766,-0.85778 0.50766,-1.52281 0,-0.66503 0.22809,-1.35032 0.50759,-1.52285 0.27911,-0.1727 0.5076,-1.29009 0.5076,-2.48341 0,-1.19335 0.16068,-2.33063 0.35743,-2.52731 0.19676,-0.19676 0.42995,-0.97718 0.51896,-1.73436 0.0889,-0.75721 0.36936,-1.83361 0.62313,-2.39199 1.28091,-2.81553 2.26407,-8.15829 2.43251,-13.21959 0.21971,-6.59708 -0.19821,-7.46831 -4.57885,-9.55445 -2.68497,-1.27855 -4.35626,-1.61489 -10.77466,-2.16839 -1.95435,-0.16833 -3.66754,-0.46142 -3.80713,-0.65089 -0.3476,-0.47181 -4.18869,-1.56402 -5.50028,-1.56402 -0.58731,0 -1.87424,-0.45319 -2.85994,-1.00658 -0.98563,-0.55361 -1.79204,-0.89808 -1.79204,-0.76553 0,0.21206 -1.09869,-0.14282 -4.82238,-1.56084 -0.55839,-0.21279 -1.12941,-0.42583 -1.269,-0.47418 -1.1504,-0.39759 -2.39746,-1.00702 -2.96834,-1.45107 -0.3762,-0.29295 -1.17568,-0.60222 -1.77662,-0.68799 -0.60094,-0.0856 -2.39494,-1.06725 -3.98658,-2.18102 -1.59171,-1.11382 -3.23432,-2.02512 -3.65028,-2.02512 -0.41581,0 -0.89286,-0.2208 -1.05978,-0.49112 -0.67053,-1.08492 -6.82324,-3.56975 -8.83913,-3.56975 l -2.0848,0 -0.007,4.18781 c -0.007,4.12493 -0.6803,7.1387 -1.92966,8.6441 -0.35015,0.42175 -0.87971,2.10455 -1.17677,3.73914 -0.29696,1.63463 -0.65793,3.60306 -0.802,4.37423 -0.14392,0.7712 -0.46401,1.52707 -0.71101,1.6797 -0.24704,0.15267 -0.45418,1.00644 -0.46037,1.89733 -0.007,0.89087 -0.45797,2.19087 -1.00392,2.88884 -0.84248,1.07701 -0.99438,2.09216 -1.00396,6.70897 l -0.0109,5.43991 1.77232,1.77236 c 2.20165,2.20165 5.31832,4.34828 6.34042,4.36701 0.42357,0.007 1.66779,0.69305 2.76448,1.52285 1.09673,0.82976 2.49642,1.50871 3.11044,1.50871 0.61406,0 1.39583,0.33666 1.73724,0.74799 0.3414,0.41126 1.45442,0.90132 2.47331,1.08875 1.0189,0.18764 2.39732,0.76457 3.06315,1.28248 0.66583,0.51793 1.72455,0.94169 2.35275,0.94169 1.163,0 2.78182,1.87919 2.78182,3.22918 0,0.39989 1.88451,2.69816 4.18782,5.10765 3.60848,3.77481 4.3634,4.33858 5.45685,4.0753 0.698,-0.16797 2.63961,-0.53907 4.31476,-0.82451 z m 50.78683,-15.03848 c 0.26526,-0.22263 1.73855,-0.82579 3.27411,-1.33976 2.34838,-0.78614 8.49435,-4.46265 11.80026,-7.05901 0.99562,-0.78196 1.63365,-3.35533 1.03078,-4.15743 -0.69903,-0.92996 -5.05153,-4.29753 -5.5545,-4.29753 -0.2678,0 -1.43245,-0.45684 -2.58813,-1.01522 -1.15571,-0.55838 -2.34881,-1.01522 -2.65134,-1.01522 -0.30242,0 -1.07807,-0.34614 -1.72364,-0.76902 -1.49804,-0.98155 -6.44376,-2.27667 -8.69405,-2.27667 -2.41739,0 -3.80214,1.59969 -3.80214,4.39244 0,2.00293 -1.20258,4.86506 -3.37399,8.03011 -0.37802,0.55077 -0.68693,1.96806 -0.68693,3.14965 0,2.06243 0.0729,2.16193 1.81718,2.48924 1.0122,0.18983 1.92995,0.70598 2.07176,1.16512 0.9665,3.12923 0.93393,3.10847 4.88192,3.10847 2.04407,0 3.93346,-0.18218 4.19871,-0.40536 z M 321.53093,589.89095 c 0.60422,-0.97769 1.28784,-4.90568 1.54919,-8.90181 l 0.24085,-3.68022 -1.97717,0 c -1.72,0 -2.38554,0.38986 -5.11625,2.99625 -2.18605,2.08658 -3.13907,3.37576 -3.13907,4.24626 0,1.26487 1.42942,3.4557 3.29513,5.05022 1.17721,1.00618 4.58603,1.19773 5.14747,0.2893 z m 84.90008,-90.75466 c 1.32441,-1.11672 2.58568,-2.03043 2.80288,-2.03043 0.8788,0 2.59312,-1.84881 2.7064,-2.91875 0.11841,-1.12059 0.0182,-1.14216 -5.28998,-1.14216 -5.86682,0 -7.2675,0.54129 -7.2675,2.80856 0,1.16472 1.14009,4.26047 1.81649,4.93257 0.90787,0.90205 2.9805,0.24886 5.23171,-1.64979 z m 9.96198,-43.13889 c -0.17525,-0.28384 -1.31672,-0.51594 -2.53627,-0.51594 -2.70028,0 -4.32165,-1.66815 -4.32165,-4.4464 0,-1.45937 -0.44725,-2.2046 -2.53803,-4.23063 -1.40519,-1.36151 -2.5381,-2.91933 -2.5381,-3.49007 0,-0.69243 -0.33339,-1.03088 -1.01526,-1.03088 -0.56395,0 -1.01518,-0.33849 -1.01518,-0.76141 0,-0.41857 0.18546,-0.76144 0.41173,-0.76144 0.22627,0 0.91181,-0.46572 1.52285,-1.03496 0.94591,-0.88128 1.11093,-1.58279 1.11093,-4.72274 0,-3.50508 0.0831,-3.76818 1.67391,-5.31019 1.64509,-1.59456 1.75644,-1.62225 6.47211,-1.61117 5.39563,0.0146 6.24274,0.40032 8.05434,3.68438 0.72894,1.32143 1.05854,2.83094 1.05854,4.84771 0,1.6108 0.24959,3.17832 0.55459,3.48333 0.40127,0.40127 0.40127,0.84156 0,1.59105 -0.30533,0.56997 -0.55824,2.479 -0.56268,4.24229 -0.007,2.83006 -0.18582,3.40746 -1.52285,4.92452 -0.83311,0.94519 -1.51475,2.10899 -1.51475,2.58627 0,1.35906 -2.7267,3.47483 -3.29437,2.55628 z"
       id="path7355"
       inkscape:connector-curvature="0" />
  </g>
</svg>
